<?xml version="1.0" encoding="UTF-8" standalone="no"?>
<!DOCTYPE svg PUBLIC "-//W3C//DTD SVG 1.1//EN"
 "http://www.w3.org/Graphics/SVG/1.1/DTD/svg11.dtd">
<!-- Generated by graphviz version 5.0.0 (20220707.1540)
 -->
<!-- Title: dependencies Pages: 1 -->
<svg width="412pt" height="247pt"
 viewBox="0.00 0.00 412.00 246.80" xmlns="http://www.w3.org/2000/svg" xmlns:xlink="http://www.w3.org/1999/xlink">
<g id="graph0" class="graph" transform="scale(1 1) rotate(0) translate(4 242.8)">
<title>dependencies</title>
<polygon fill="white" stroke="transparent" points="-4,4 -4,-242.8 408,-242.8 408,4 -4,4"/>
<text text-anchor="middle" x="202" y="-8.2" font-family="sans-serif" font-size="14.00">dependencies</text>
<g id="clust1" class="cluster">
<title>cluster_CustomerModule</title>
<polygon fill="none" stroke="black" stroke-dasharray="1,5" points="8,-32.8 8,-230.8 396,-230.8 396,-32.8 8,-32.8"/>
</g>
<g id="clust4" class="cluster">
<title>cluster_CustomerModule_exports</title>
<polygon fill="none" stroke="black" points="129,-170.8 129,-222.8 261,-222.8 261,-170.8 129,-170.8"/>
</g>
<g id="clust6" class="cluster">
<title>cluster_CustomerModule_providers</title>
<polygon fill="none" stroke="black" points="16,-40.8 16,-92.8 388,-92.8 388,-40.8 16,-40.8"/>
</g>
<!-- CustomerService  -->
<g id="node1" class="node">
<title>CustomerService </title>
<polygon fill="#fb8072" stroke="black" points="252.92,-214.8 137.08,-214.8 137.08,-178.8 252.92,-178.8 252.92,-214.8"/>
<text text-anchor="middle" x="195" y="-192.6" font-family="Times,serif" font-size="14.00">CustomerService </text>
</g>
<!-- CustomerModule -->
<g id="node2" class="node">
<title>CustomerModule</title>
<polygon fill="#8dd3c7" stroke="black" points="251.99,-149.8 248.99,-153.8 227.99,-153.8 224.99,-149.8 138.01,-149.8 138.01,-113.8 251.99,-113.8 251.99,-149.8"/>
<text text-anchor="middle" x="195" y="-127.6" font-family="Times,serif" font-size="14.00">CustomerModule</text>
</g>
<!-- CustomerModule&#45;&gt;CustomerService  -->
<g id="edge1" class="edge">
<title>CustomerModule&#45;&gt;CustomerService </title>
<path fill="none" stroke="black" stroke-dasharray="5,2" d="M195,-149.91C195,-149.91 195,-168.79 195,-168.79"/>
<polygon fill="black" stroke="black" points="191.5,-168.79 195,-178.79 198.5,-168.79 191.5,-168.79"/>
</g>
<!-- CustomerRepository -->
<g id="node3" class="node">
<title>CustomerRepository</title>
<ellipse fill="#fdb462" stroke="black" cx="289" cy="-66.8" rx="90.94" ry="18"/>
<text text-anchor="middle" x="289" y="-62.6" font-family="Times,serif" font-size="14.00">CustomerRepository</text>
</g>
<!-- CustomerRepository&#45;&gt;CustomerModule -->
<g id="edge2" class="edge">
<title>CustomerRepository&#45;&gt;CustomerModule</title>
<path fill="none" stroke="black" d="M225.01,-79.64C225.01,-79.64 225.01,-103.32 225.01,-103.32"/>
<polygon fill="black" stroke="black" points="221.51,-103.32 225.01,-113.32 228.51,-103.32 221.51,-103.32"/>
</g>
<!-- CustomerService -->
<g id="node4" class="node">
<title>CustomerService</title>
<ellipse fill="#fdb462" stroke="black" cx="102" cy="-66.8" rx="77.59" ry="18"/>
<text text-anchor="middle" x="102" y="-62.6" font-family="Times,serif" font-size="14.00">CustomerService</text>
</g>
<!-- CustomerService&#45;&gt;CustomerModule -->
<g id="edge3" class="edge">
<title>CustomerService&#45;&gt;CustomerModule</title>
<path fill="none" stroke="black" d="M158.77,-79.33C158.77,-79.33 158.77,-103.65 158.77,-103.65"/>
<polygon fill="black" stroke="black" points="155.27,-103.65 158.77,-113.65 162.27,-103.65 155.27,-103.65"/>
</g>
</g>
</svg>
