<?xml version="1.0" encoding="UTF-8" standalone="no"?>
<!DOCTYPE svg PUBLIC "-//W3C//DTD SVG 1.1//EN"
 "http://www.w3.org/Graphics/SVG/1.1/DTD/svg11.dtd">
<!-- Generated by graphviz version 5.0.0 (20220707.1540)
 -->
<!-- Title: dependencies Pages: 1 -->
<svg width="960pt" height="258pt"
 viewBox="0.00 0.00 960.00 257.80" xmlns="http://www.w3.org/2000/svg" xmlns:xlink="http://www.w3.org/1999/xlink">
<g id="graph0" class="graph" transform="scale(1 1) rotate(0) translate(4 253.8)">
<title>dependencies</title>
<polygon fill="white" stroke="transparent" points="-4,4 -4,-253.8 956,-253.8 956,4 -4,4"/>
<text text-anchor="middle" x="476" y="-8.2" font-family="sans-serif" font-size="14.00">dependencies</text>
<g id="clust1" class="cluster">
<title>cluster_AllocationModule</title>
<polygon fill="none" stroke="black" stroke-dasharray="1,5" points="544,-32.8 544,-241.8 944,-241.8 944,-32.8 544,-32.8"/>
</g>
<g id="clust4" class="cluster">
<title>cluster_AllocationModule_exports</title>
<polygon fill="none" stroke="black" points="573,-181.8 573,-233.8 709,-233.8 709,-181.8 573,-181.8"/>
</g>
<g id="clust6" class="cluster">
<title>cluster_AllocationModule_providers</title>
<polygon fill="none" stroke="black" points="552,-40.8 552,-92.8 936,-92.8 936,-40.8 552,-40.8"/>
</g>
<g id="clust7" class="cluster">
<title>cluster_AppModule</title>
<polygon fill="none" stroke="black" stroke-dasharray="1,5" points="302,-108.8 302,-233.8 448,-233.8 448,-108.8 302,-108.8"/>
</g>
<g id="clust9" class="cluster">
<title>cluster_AppModule_imports</title>
<polygon fill="none" stroke="black" points="310,-116.8 310,-168.8 440,-168.8 440,-116.8 310,-116.8"/>
</g>
<g id="clust13" class="cluster">
<title>cluster_CustomerModule</title>
<polygon fill="none" stroke="black" stroke-dasharray="1,5" points="8,-32.8 8,-100.8 536,-100.8 536,-32.8 8,-32.8"/>
</g>
<g id="clust16" class="cluster">
<title>cluster_CustomerModule_exports</title>
<polygon fill="none" stroke="black" points="396,-40.8 396,-92.8 528,-92.8 528,-40.8 396,-40.8"/>
</g>
<g id="clust18" class="cluster">
<title>cluster_CustomerModule_providers</title>
<polygon fill="none" stroke="black" points="16,-40.8 16,-92.8 388,-92.8 388,-40.8 16,-40.8"/>
</g>
<!-- AllocationService  -->
<g id="node1" class="node">
<title>AllocationService </title>
<polygon fill="#fb8072" stroke="black" points="701.08,-225.8 580.92,-225.8 580.92,-189.8 701.08,-189.8 701.08,-225.8"/>
<text text-anchor="middle" x="641" y="-203.6" font-family="Times,serif" font-size="14.00">AllocationService </text>
</g>
<!-- AllocationModule -->
<g id="node2" class="node">
<title>AllocationModule</title>
<polygon fill="#8dd3c7" stroke="black" points="700.15,-160.8 697.15,-164.8 676.15,-164.8 673.15,-160.8 581.85,-160.8 581.85,-124.8 700.15,-124.8 700.15,-160.8"/>
<text text-anchor="middle" x="641" y="-138.6" font-family="Times,serif" font-size="14.00">AllocationModule</text>
</g>
<!-- AllocationModule&#45;&gt;AllocationService  -->
<g id="edge1" class="edge">
<title>AllocationModule&#45;&gt;AllocationService </title>
<path fill="none" stroke="black" stroke-dasharray="5,2" d="M641,-160.91C641,-160.91 641,-179.79 641,-179.79"/>
<polygon fill="black" stroke="black" points="637.5,-179.79 641,-189.79 644.5,-179.79 637.5,-179.79"/>
</g>
<!-- AppModule -->
<g id="node6" class="node">
<title>AppModule</title>
<polygon fill="#8dd3c7" stroke="black" points="427.66,-225.8 424.66,-229.8 403.66,-229.8 400.66,-225.8 344.34,-225.8 344.34,-189.8 427.66,-189.8 427.66,-225.8"/>
<text text-anchor="middle" x="386" y="-203.6" font-family="Times,serif" font-size="14.00">AppModule</text>
</g>
<!-- AllocationModule&#45;&gt;AppModule -->
<g id="edge4" class="edge">
<title>AllocationModule&#45;&gt;AppModule</title>
<path fill="none" stroke="black" d="M581.42,-142.8C534.16,-142.8 475.98,-142.8 475.98,-142.8 475.98,-142.8 475.98,-207.8 475.98,-207.8 475.98,-207.8 437.83,-207.8 437.83,-207.8"/>
<polygon fill="black" stroke="black" points="437.83,-204.3 427.83,-207.8 437.83,-211.3 437.83,-204.3"/>
</g>
<!-- AllocationRepository -->
<g id="node3" class="node">
<title>AllocationRepository</title>
<ellipse fill="#fdb462" stroke="black" cx="834" cy="-66.8" rx="94.36" ry="18"/>
<text text-anchor="middle" x="834" y="-62.6" font-family="Times,serif" font-size="14.00">AllocationRepository</text>
</g>
<!-- AllocationRepository&#45;&gt;AllocationModule -->
<g id="edge2" class="edge">
<title>AllocationRepository&#45;&gt;AllocationModule</title>
<path fill="none" stroke="black" d="M834,-84.81C834,-107.29 834,-142.8 834,-142.8 834,-142.8 710.22,-142.8 710.22,-142.8"/>
<polygon fill="black" stroke="black" points="710.22,-139.3 700.22,-142.8 710.22,-146.3 710.22,-139.3"/>
</g>
<!-- AllocationService -->
<g id="node4" class="node">
<title>AllocationService</title>
<ellipse fill="#fdb462" stroke="black" cx="641" cy="-66.8" rx="80.51" ry="18"/>
<text text-anchor="middle" x="641" y="-62.6" font-family="Times,serif" font-size="14.00">AllocationService</text>
</g>
<!-- AllocationService&#45;&gt;AllocationModule -->
<g id="edge3" class="edge">
<title>AllocationService&#45;&gt;AllocationModule</title>
<path fill="none" stroke="black" d="M641,-84.81C641,-84.81 641,-114.65 641,-114.65"/>
<polygon fill="black" stroke="black" points="637.5,-114.65 641,-124.65 644.5,-114.65 637.5,-114.65"/>
</g>
<!-- CustomerModule -->
<g id="node5" class="node">
<title>CustomerModule</title>
<polygon fill="#8dd3c7" stroke="black" points="431.99,-160.8 428.99,-164.8 407.99,-164.8 404.99,-160.8 318.01,-160.8 318.01,-124.8 431.99,-124.8 431.99,-160.8"/>
<text text-anchor="middle" x="375" y="-138.6" font-family="Times,serif" font-size="14.00">CustomerModule</text>
</g>
<!-- CustomerModule&#45;&gt;AppModule -->
<g id="edge5" class="edge">
<title>CustomerModule&#45;&gt;AppModule</title>
<path fill="none" stroke="black" d="M386,-160.91C386,-160.91 386,-179.79 386,-179.79"/>
<polygon fill="black" stroke="black" points="382.5,-179.79 386,-189.79 389.5,-179.79 382.5,-179.79"/>
</g>
<!-- CustomerService  -->
<g id="node7" class="node">
<title>CustomerService </title>
<polygon fill="#fb8072" stroke="black" points="519.92,-84.8 404.08,-84.8 404.08,-48.8 519.92,-48.8 519.92,-84.8"/>
<text text-anchor="middle" x="462" y="-62.6" font-family="Times,serif" font-size="14.00">CustomerService </text>
</g>
<!-- CustomerModule&#45;&gt;CustomerService  -->
<g id="edge6" class="edge">
<title>CustomerModule&#45;&gt;CustomerService </title>
<path fill="none" stroke="black" stroke-dasharray="5,2" d="M418.02,-124.79C418.02,-124.79 418.02,-94.95 418.02,-94.95"/>
<polygon fill="black" stroke="black" points="421.52,-94.95 418.02,-84.95 414.52,-94.95 421.52,-94.95"/>
</g>
<!-- CustomerRepository -->
<g id="node8" class="node">
<title>CustomerRepository</title>
<ellipse fill="#fdb462" stroke="black" cx="289" cy="-66.8" rx="90.94" ry="18"/>
<text text-anchor="middle" x="289" y="-62.6" font-family="Times,serif" font-size="14.00">CustomerRepository</text>
</g>
<!-- CustomerRepository&#45;&gt;CustomerModule -->
<g id="edge7" class="edge">
<title>CustomerRepository&#45;&gt;CustomerModule</title>
<path fill="none" stroke="black" d="M348.99,-80.39C348.99,-80.39 348.99,-114.76 348.99,-114.76"/>
<polygon fill="black" stroke="black" points="345.49,-114.76 348.99,-124.76 352.49,-114.76 345.49,-114.76"/>
</g>
<!-- CustomerService -->
<g id="node9" class="node">
<title>CustomerService</title>
<ellipse fill="#fdb462" stroke="black" cx="102" cy="-66.8" rx="77.59" ry="18"/>
<text text-anchor="middle" x="102" y="-62.6" font-family="Times,serif" font-size="14.00">CustomerService</text>
</g>
<!-- CustomerService&#45;&gt;CustomerModule -->
<g id="edge8" class="edge">
<title>CustomerService&#45;&gt;CustomerModule</title>
<path fill="none" stroke="black" d="M102,-84.81C102,-107.29 102,-142.8 102,-142.8 102,-142.8 307.77,-142.8 307.77,-142.8"/>
<polygon fill="black" stroke="black" points="307.77,-146.3 317.77,-142.8 307.77,-139.3 307.77,-146.3"/>
</g>
</g>
</svg>
