<?xml version="1.0" encoding="UTF-8" standalone="no"?>
<!DOCTYPE svg PUBLIC "-//W3C//DTD SVG 1.1//EN"
 "http://www.w3.org/Graphics/SVG/1.1/DTD/svg11.dtd">
<!-- Generated by graphviz version 5.0.0 (20220707.1540)
 -->
<!-- Title: dependencies Pages: 1 -->
<svg width="306pt" height="174pt"
 viewBox="0.00 0.00 306.00 173.80" xmlns="http://www.w3.org/2000/svg" xmlns:xlink="http://www.w3.org/1999/xlink">
<g id="graph0" class="graph" transform="scale(1 1) rotate(0) translate(4 169.8)">
<title>dependencies</title>
<polygon fill="white" stroke="transparent" points="-4,4 -4,-169.8 302,-169.8 302,4 -4,4"/>
<text text-anchor="middle" x="149" y="-8.2" font-family="sans-serif" font-size="14.00">dependencies</text>
<g id="clust1" class="cluster">
<title>cluster_AppModule</title>
<polygon fill="none" stroke="black" stroke-dasharray="1,5" points="8,-32.8 8,-157.8 290,-157.8 290,-32.8 8,-32.8"/>
</g>
<g id="clust3" class="cluster">
<title>cluster_AppModule_imports</title>
<polygon fill="none" stroke="black" points="16,-40.8 16,-92.8 282,-92.8 282,-40.8 16,-40.8"/>
</g>
<!-- AllocationModule -->
<g id="node1" class="node">
<title>AllocationModule</title>
<polygon fill="#8dd3c7" stroke="black" points="274.15,-84.8 271.15,-88.8 250.15,-88.8 247.15,-84.8 155.85,-84.8 155.85,-48.8 274.15,-48.8 274.15,-84.8"/>
<text text-anchor="middle" x="215" y="-62.6" font-family="Times,serif" font-size="14.00">AllocationModule</text>
</g>
<!-- AppModule -->
<g id="node3" class="node">
<title>AppModule</title>
<polygon fill="#8dd3c7" stroke="black" points="189.66,-149.8 186.66,-153.8 165.66,-153.8 162.66,-149.8 106.34,-149.8 106.34,-113.8 189.66,-113.8 189.66,-149.8"/>
<text text-anchor="middle" x="148" y="-127.6" font-family="Times,serif" font-size="14.00">AppModule</text>
</g>
<!-- AllocationModule&#45;&gt;AppModule -->
<g id="edge1" class="edge">
<title>AllocationModule&#45;&gt;AppModule</title>
<path fill="none" stroke="black" d="M172.75,-84.91C172.75,-84.91 172.75,-103.79 172.75,-103.79"/>
<polygon fill="black" stroke="black" points="169.25,-103.79 172.75,-113.79 176.25,-103.79 169.25,-103.79"/>
</g>
<!-- CustomerModule -->
<g id="node2" class="node">
<title>CustomerModule</title>
<polygon fill="#8dd3c7" stroke="black" points="137.99,-84.8 134.99,-88.8 113.99,-88.8 110.99,-84.8 24.01,-84.8 24.01,-48.8 137.99,-48.8 137.99,-84.8"/>
<text text-anchor="middle" x="81" y="-62.6" font-family="Times,serif" font-size="14.00">CustomerModule</text>
</g>
<!-- CustomerModule&#45;&gt;AppModule -->
<g id="edge2" class="edge">
<title>CustomerModule&#45;&gt;AppModule</title>
<path fill="none" stroke="black" d="M122.08,-84.91C122.08,-84.91 122.08,-103.79 122.08,-103.79"/>
<polygon fill="black" stroke="black" points="118.58,-103.79 122.08,-113.79 125.58,-103.79 118.58,-103.79"/>
</g>
</g>
</svg>
