<?xml version="1.0" encoding="UTF-8" standalone="no"?>
<!DOCTYPE svg PUBLIC "-//W3C//DTD SVG 1.1//EN"
 "http://www.w3.org/Graphics/SVG/1.1/DTD/svg11.dtd">
<!-- Generated by graphviz version 5.0.0 (20220707.1540)
 -->
<!-- Title: dependencies Pages: 1 -->
<svg width="424pt" height="247pt"
 viewBox="0.00 0.00 424.00 246.80" xmlns="http://www.w3.org/2000/svg" xmlns:xlink="http://www.w3.org/1999/xlink">
<g id="graph0" class="graph" transform="scale(1 1) rotate(0) translate(4 242.8)">
<title>dependencies</title>
<polygon fill="white" stroke="transparent" points="-4,4 -4,-242.8 420,-242.8 420,4 -4,4"/>
<text text-anchor="middle" x="208" y="-8.2" font-family="sans-serif" font-size="14.00">dependencies</text>
<g id="clust1" class="cluster">
<title>cluster_AllocationModule</title>
<polygon fill="none" stroke="black" stroke-dasharray="1,5" points="8,-32.8 8,-230.8 408,-230.8 408,-32.8 8,-32.8"/>
</g>
<g id="clust6" class="cluster">
<title>cluster_AllocationModule_providers</title>
<polygon fill="none" stroke="black" points="16,-40.8 16,-92.8 400,-92.8 400,-40.8 16,-40.8"/>
</g>
<g id="clust4" class="cluster">
<title>cluster_AllocationModule_exports</title>
<polygon fill="none" stroke="black" points="133,-170.8 133,-222.8 269,-222.8 269,-170.8 133,-170.8"/>
</g>
<!-- AllocationService  -->
<g id="node1" class="node">
<title>AllocationService </title>
<polygon fill="#fb8072" stroke="black" points="261.08,-214.8 140.92,-214.8 140.92,-178.8 261.08,-178.8 261.08,-214.8"/>
<text text-anchor="middle" x="201" y="-192.6" font-family="Times,serif" font-size="14.00">AllocationService </text>
</g>
<!-- AllocationModule -->
<g id="node2" class="node">
<title>AllocationModule</title>
<polygon fill="#8dd3c7" stroke="black" points="260.15,-149.8 257.15,-153.8 236.15,-153.8 233.15,-149.8 141.85,-149.8 141.85,-113.8 260.15,-113.8 260.15,-149.8"/>
<text text-anchor="middle" x="201" y="-127.6" font-family="Times,serif" font-size="14.00">AllocationModule</text>
</g>
<!-- AllocationModule&#45;&gt;AllocationService  -->
<g id="edge1" class="edge">
<title>AllocationModule&#45;&gt;AllocationService </title>
<path fill="none" stroke="black" stroke-dasharray="5,2" d="M201,-149.91C201,-149.91 201,-168.79 201,-168.79"/>
<polygon fill="black" stroke="black" points="197.5,-168.79 201,-178.79 204.5,-168.79 197.5,-168.79"/>
</g>
<!-- AllocationRepository -->
<g id="node3" class="node">
<title>AllocationRepository</title>
<ellipse fill="#fdb462" stroke="black" cx="298" cy="-66.8" rx="94.36" ry="18"/>
<text text-anchor="middle" x="298" y="-62.6" font-family="Times,serif" font-size="14.00">AllocationRepository</text>
</g>
<!-- AllocationRepository&#45;&gt;AllocationModule -->
<g id="edge2" class="edge">
<title>AllocationRepository&#45;&gt;AllocationModule</title>
<path fill="none" stroke="black" d="M232.07,-79.95C232.07,-79.95 232.07,-103.49 232.07,-103.49"/>
<polygon fill="black" stroke="black" points="228.57,-103.49 232.07,-113.49 235.57,-103.49 228.57,-103.49"/>
</g>
<!-- AllocationService -->
<g id="node4" class="node">
<title>AllocationService</title>
<ellipse fill="#fdb462" stroke="black" cx="105" cy="-66.8" rx="80.51" ry="18"/>
<text text-anchor="middle" x="105" y="-62.6" font-family="Times,serif" font-size="14.00">AllocationService</text>
</g>
<!-- AllocationService&#45;&gt;AllocationModule -->
<g id="edge3" class="edge">
<title>AllocationService&#45;&gt;AllocationModule</title>
<path fill="none" stroke="black" d="M163.72,-79.33C163.72,-79.33 163.72,-103.65 163.72,-103.65"/>
<polygon fill="black" stroke="black" points="160.22,-103.65 163.72,-113.65 167.22,-103.65 160.22,-103.65"/>
</g>
</g>
</svg>
